<?xml version="1.0" standalone="no"?>
<!DOCTYPE svg PUBLIC "-//W3C//DTD SVG 20010904//EN"
 "http://www.w3.org/TR/2001/REC-SVG-20010904/DTD/svg10.dtd">
<svg version="1.0" xmlns="http://www.w3.org/2000/svg"
 width="100.000000pt" height="100.000000pt" viewBox="0 0 100.000000 100.000000"
 preserveAspectRatio="xMidYMid meet">
<metadata>
Created by potrace 1.11, written by Peter Selinger 2001-2013
</metadata>
<g transform="translate(0.000000,100.000000) scale(0.100000,-0.100000)"
fill="#000000" stroke="none">
<path d="M451 943 c-27 -18 -81 -73 -81 -82 0 -3 19 -24 42 -48 35 -35 45 -41
70 -36 57 11 94 -27 89 -92 -2 -24 7 -39 39 -70 34 -33 46 -39 78 -37 28 3 42
-2 59 -20 12 -13 23 -30 24 -38 6 -32 -12 -70 -41 -85 -43 -22 -95 0 -108 47
-5 18 -6 39 -2 47 9 17 -75 104 -93 98 -8 -2 -12 -42 -12 -123 0 -118 0 -119
27 -136 46 -29 41 -101 -10 -129 -50 -29 -112 7 -112 66 0 32 27 75 48 75 4 0
8 53 7 118 0 114 -1 118 -27 144 -22 21 -28 37 -28 68 0 35 -6 48 -41 82 l-40
40 -26 -23 c-99 -91 -265 -267 -269 -285 -3 -13 -2 -33 2 -46 4 -13 98 -114
210 -225 190 -189 206 -203 240 -203 34 0 50 14 245 208 196 196 209 211 209
245 0 35 -12 50 -197 235 -109 109 -208 204 -220 210 -30 16 -54 15 -82 -5z"/>
</g>
</svg>
